HIERARCHY
ROOT Hips
{
    OFFSET 0.000000 0.000000 0.000000
    CHANNELS 6 Xposition Yposition Zposition Zrotation Xrotation Yrotation
    JOINT Spine
    {
        OFFSET -0.000000 7.305679 0.000000
        CHANNELS 3 Zrotation Xrotation Yrotation
        JOINT Spine1
        {
            OFFSET -0.000000 20.356625 0.000000
            CHANNELS 3 Zrotation Xrotation Yrotation
            JOINT Neck
            {
                OFFSET -0.000000 22.138498 0.000000
                CHANNELS 3 Zrotation Xrotation Yrotation
                JOINT Head
                {
                    OFFSET -0.000000 13.809516 1.781873
                    CHANNELS 3 Zrotation Xrotation Yrotation
                    End Site
                    {
                        OFFSET -0.000000 17.818729 0.000000
                    }
                }
            }
            JOINT LeftShoulder
            {
                OFFSET 3.599131 17.989975 0.023592
                CHANNELS 3 Zrotation Xrotation Yrotation
                JOINT LeftArm
                {
                    OFFSET 12.560995 0.000000 0.000000
                    CHANNELS 3 Zrotation Xrotation Yrotation
                    JOINT LeftForeArm
                    {
                        OFFSET 22.903347 0.000000 0.000000
                        CHANNELS 3 Zrotation Xrotation Yrotation
                        JOINT LeftHand
                        {
                            OFFSET 21.865294 0.000000 0.000000
                            CHANNELS 3 Zrotation Xrotation Yrotation
                            JOINT LeftHandThumb1
                            {
                                OFFSET 1.853706 -2.106484 2.949078
                                CHANNELS 3 Zrotation Xrotation Yrotation
                                JOINT LeftHandThumb2
                                {
                                    OFFSET 2.049154 0.000000 1.336405
                                    CHANNELS 3 Zrotation Xrotation Yrotation
                                    JOINT LeftHandThumb3
                                    {
                                        OFFSET 2.672809 0.000000 0.000000
                                        CHANNELS 3 Zrotation Xrotation Yrotation
                                        End Site
                                        {
                                            OFFSET 2.381303 0.000000 0.000000
                                        }
                                    }
                                }
                            }
                            JOINT LeftHandIndex1
                            {
                                OFFSET 7.583345 0.000000 2.949078
                                CHANNELS 3 Zrotation Xrotation Yrotation
                                JOINT LeftHandIndex2
                                {
                                    OFFSET 4.454682 0.000000 0.000000
                                    CHANNELS 3 Zrotation Xrotation Yrotation
                                    JOINT LeftHandIndex3
                                    {
                                        OFFSET 2.227341 0.000000 0.000000
                                        CHANNELS 3 Zrotation Xrotation Yrotation
                                        End Site
                                        {
                                            OFFSET 1.984419 0.000000 0.000000
                                        }
                                    }
                                }
                            }
                            JOINT LeftHandMiddle1
                            {
                                OFFSET 7.583345 0.000000 0.977409
                                CHANNELS 3 Zrotation Xrotation Yrotation
                                JOINT LeftHandMiddle2
                                {
                                    OFFSET 4.900151 0.000000 0.000000
                                    CHANNELS 3 Zrotation Xrotation Yrotation
                                    JOINT LeftHandMiddle3
                                    {
                                        OFFSET 2.672809 0.000000 0.000000
                                        CHANNELS 3 Zrotation Xrotation Yrotation
                                        End Site
                                        {
                                            OFFSET 2.381303 0.000000 0.000000
                                        }
                                    }
                                }
                            }
                            JOINT LeftHandRing1
                            {
                                OFFSET 7.162047 0.000000 -0.977409
                                CHANNELS 3 Zrotation Xrotation Yrotation
                                JOINT LeftHandRing2
                                {
                                    OFFSET 4.454682 0.000000 0.000000
                                    CHANNELS 3 Zrotation Xrotation Yrotation
                                    JOINT LeftHandRing3
                                    {
                                        OFFSET 2.227341 0.000000 0.000000
                                        CHANNELS 3 Zrotation Xrotation Yrotation
                                        End Site
                                        {
                                            OFFSET 1.984419 0.000000 0.000000
                                        }
                                    }
                                }
                            }
                            JOINT LeftHandPinky1
                            {
                                OFFSET 6.740750 0.000000 -2.949078
                                CHANNELS 3 Zrotation Xrotation Yrotation
                                JOINT LeftHandPinky2
                                {
                                    OFFSET 3.563746 0.000000 0.000000
                                    CHANNELS 3 Zrotation Xrotation Yrotation
                                    JOINT LeftHandPinky3
                                    {
                                        OFFSET 1.781873 0.000000 0.000000
                                        CHANNELS 3 Zrotation Xrotation Yrotation
                                        End Site
                                        {
                                            OFFSET 1.587536 0.000000 0.000000
                                        }
                                    }
                                }
                            }
                        }
                    }
                }
            }
            JOINT RightShoulder
            {
                OFFSET -3.506995 17.989975 0.023592
                CHANNELS 3 Zrotation Xrotation Yrotation
                JOINT RightArm
                {
                    OFFSET -12.560995 0.000000 0.000000
                    CHANNELS 3 Zrotation Xrotation Yrotation
                    JOINT RightForeArm
                    {
                        OFFSET -22.903347 0.000000 0.000000
                        CHANNELS 3 Zrotation Xrotation Yrotation
                        JOINT RightHand
                        {
                            OFFSET -21.865294 0.000000 0.000000
                            CHANNELS 3 Zrotation Xrotation Yrotation
                            JOINT RightHandThumb1
                            {
                                OFFSET -1.853706 -2.106484 2.949078
                                CHANNELS 3 Zrotation Xrotation Yrotation
                                JOINT RightHandThumb2
                                {
                                    OFFSET -2.049154 0.000000 1.336405
                                    CHANNELS 3 Zrotation Xrotation Yrotation
                                    JOINT RightHandThumb3
                                    {
                                        OFFSET -2.672809 0.000000 0.000000
                                        CHANNELS 3 Zrotation Xrotation Yrotation
                                        End Site
                                        {
                                            OFFSET -2.381303 0.000000 0.000000
                                        }
                                    }
                                }
                            }
                            JOINT RightHandIndex1
                            {
                                OFFSET -7.583345 0.000000 2.949078
                                CHANNELS 3 Zrotation Xrotation Yrotation
                                JOINT RightHandIndex2
                                {
                                    OFFSET -4.454682 0.000000 0.000000
                                    CHANNELS 3 Zrotation Xrotation Yrotation
                                    JOINT RightHandIndex3
                                    {
                                        OFFSET -2.227341 0.000000 0.000000
                                        CHANNELS 3 Zrotation Xrotation Yrotation
                                        End Site
                                        {
                                            OFFSET -1.984419 0.000000 0.000000
                                        }
                                    }
                                }
                            }
                            JOINT RightHandMiddle1
                            {
                                OFFSET -7.583345 0.000000 0.977409
                                CHANNELS 3 Zrotation Xrotation Yrotation
                                JOINT RightHandMiddle2
                                {
                                    OFFSET -4.900151 0.000000 0.000000
                                    CHANNELS 3 Zrotation Xrotation Yrotation
                                    JOINT RightHandMiddle3
                                    {
                                        OFFSET -2.672809 0.000000 0.000000
                                        CHANNELS 3 Zrotation Xrotation Yrotation
                                        End Site
                                        {
                                            OFFSET -2.381303 0.000000 0.000000
                                        }
                                    }
                                }
                            }
                            JOINT RightHandRing1
                            {
                                OFFSET -7.162047 0.000000 -0.977409
                                CHANNELS 3 Zrotation Xrotation Yrotation
                                JOINT RightHandRing2
                                {
                                    OFFSET -4.454682 0.000000 0.000000
                                    CHANNELS 3 Zrotation Xrotation Yrotation
                                    JOINT RightHandRing3
                                    {
                                        OFFSET -2.227341 0.000000 0.000000
                                        CHANNELS 3 Zrotation Xrotation Yrotation
                                        End Site
                                        {
                                            OFFSET -1.984419 0.000000 0.000000
                                        }
                                    }
                                }
                            }
                            JOINT RightHandPinky1
                            {
                                OFFSET -6.740750 0.000000 -2.949078
                                CHANNELS 3 Zrotation Xrotation Yrotation
                                JOINT RightHandPinky2
                                {
                                    OFFSET -3.563746 0.000000 0.000000
                                    CHANNELS 3 Zrotation Xrotation Yrotation
                                    JOINT RightHandPinky3
                                    {
                                        OFFSET -1.781873 0.000000 0.000000
                                        CHANNELS 3 Zrotation Xrotation Yrotation
                                        End Site
                                        {
                                            OFFSET -1.587536 0.000000 0.000000
                                        }
                                    }
                                }
                            }
                        }
                    }
                }
            }
        }
    }
    JOINT LeftUpLeg
    {
        OFFSET 8.909365 0.000000 0.000000
        CHANNELS 3 Zrotation Xrotation Yrotation
        JOINT LeftLeg
        {
            OFFSET -0.000000 -38.765560 0.000000
            CHANNELS 3 Zrotation Xrotation Yrotation
            JOINT LeftFoot
            {
                OFFSET -0.000000 -35.244961 0.000000
                CHANNELS 3 Zrotation Xrotation Yrotation
                JOINT LeftToeBase
                {
                    OFFSET -0.000000 -5.791087 13.364048
                    CHANNELS 3 Zrotation Xrotation Yrotation
                    End Site
                    {
                        OFFSET -0.000000 0.000000 3.563746
                    }
                }
            }
        }
    }
    JOINT RightUpLeg
    {
        OFFSET -8.909365 0.000000 0.000000
        CHANNELS 3 Zrotation Xrotation Yrotation
        JOINT RightLeg
        {
            OFFSET -0.000000 -38.765560 0.000000
            CHANNELS 3 Zrotation Xrotation Yrotation
            JOINT RightFoot
            {
                OFFSET -0.000000 -35.244961 0.000000
                CHANNELS 3 Zrotation Xrotation Yrotation
                JOINT RightToeBase
                {
                    OFFSET -0.000000 -5.791087 13.364048
                    CHANNELS 3 Zrotation Xrotation Yrotation
                    End Site
                    {
                        OFFSET -0.000000 0.000000 3.563746
                    }
                }
            }
        }
    }
}
MOTION
Frames:    4
Frame Time:    0.008333
-7.071539    79.648224    113.939629    -10.681385    -7.421814    -37.320034    -4.887253    -3.942890    -13.653639    -6.182961    16.294914    -3.615285    3.093879    3.023440    16.935215    6.418364    -2.578576    17.340317    2.538387    4.647849    -26.021130    -81.603355    35.688107    2.339091    67.415642    -27.696875    -75.691498    50.412827    -22.751631    10.130707    1.618904    2.147570    4.535218    -0.000000    0.000000    3.754919    -0.000000    0.000000    7.509837    4.213254    -0.038068    -0.516733    0.000000    0.000000    0.000000    0.000000    0.000000    0.000000    -21.149683    -10.849949    8.865046    -36.299995    0.000000    0.000000    -25.874208    0.000000    0.000000    -46.164486    -24.598509    12.920944    -72.600006    0.000000    0.000000    -51.748421    0.000000    0.000000    -75.007820    -39.026070    9.571651    -110.000000    0.000000    0.000000    -78.406685    0.000000    0.000000    -17.783520    -16.882217    -0.212198    50.394115    48.118759    44.101208    -21.298927    -53.347004    72.830139    9.691311    -70.768227    -38.434910    3.106842    -3.581710    7.912015    0.000000    0.000000    0.000000    0.000000    0.000000    0.000000    1.413608    0.000000    -0.000000    2.827217    0.000000    -0.000000    1.413608    0.000000    -0.000000    20.889570    -3.093451    -3.566130    38.194233    0.000000    -0.000000    21.072536    0.000000    -0.000000    40.251568    -7.195911    -5.909358    73.561256    0.000000    -0.000000    40.731472    0.000000    -0.000000    60.275654    -11.984012    -6.760974    110.000000    0.000000    -0.000000    60.986122    0.000000    -0.000000    8.471099    10.062763    16.869383    -2.513057    31.090597    20.647247    -12.480836    -23.454855    -5.865733    0.078017    0.395090    -0.144947    -0.685490    -9.978689    3.974849    6.829174    43.144356    -9.161194    2.524823    -6.299532    39.491703    -1.004945    -5.734503    1.033726    
-6.953632    79.190460    113.860214    -11.613935    -8.059555    -36.923103    -4.940813    -3.259312    -13.891219    -6.012050    17.446568    -3.665992    3.443198    2.597104    16.880795    6.560241    -2.717483    17.320675    2.482992    4.288538    -26.706938    -81.440903    35.778873    1.585892    68.534149    -28.643450    -75.101135    51.157269    -22.862854    9.451277    1.725022    2.212664    4.739363    -0.000000    0.000000    3.931450    -0.000000    0.000000    7.862900    4.740067    -0.053551    -0.645791    0.000000    0.000000    0.000000    0.000000    0.000000    0.000000    -20.636423    -10.759170    8.870090    -36.299995    0.000000    0.000000    -25.706844    0.000000    0.000000    -45.625904    -24.468285    13.099501    -72.600006    0.000000    0.000000    -51.413677    0.000000    0.000000    -74.364845    -38.939968    9.976150    -110.000000    0.000000    0.000000    -77.899513    0.000000    0.000000    -17.999788    -17.262564    0.054253    49.860073    47.442356    43.659618    -18.319145    -52.747158    74.163559    12.822180    -72.076416    -36.159046    2.912540    -3.477076    7.591283    0.000000    0.000000    0.000000    0.000000    0.000000    0.000000    0.792041    0.000000    -0.000000    1.584083    0.000000    -0.000000    0.792041    0.000000    -0.000000    20.232088    -3.058817    -3.613554    37.361343    0.000000    -0.000000    20.415600    0.000000    -0.000000    39.554905    -7.142829    -6.015780    73.138588    0.000000    -0.000000    40.039158    0.000000    -0.000000    59.531666    -11.932804    -6.935366    110.000000    0.000000    -0.000000    60.257370    0.000000    -0.000000    9.232636    10.208857    16.521933    -2.575503    32.881001    19.569748    -12.239066    -24.748428    -5.228048    0.065925    0.504271    -0.101947    -0.593183    -9.979971    3.454283    7.384609    44.934647    -9.723463    2.577949    -6.122277    39.691151    -1.027146    -5.857605    1.057699    
-6.814528    78.731865    113.776146    -12.471166    -8.736982    -36.548752    -4.982086    -2.524211    -14.105099    -5.940565    18.533194    -3.700302    3.814460    2.032332    16.825464    6.747776    -2.795243    17.288385    2.467557    3.907399    -27.328915    -81.223000    35.915199    0.800086    69.612457    -29.587051    -74.555779    51.793064    -22.946518    8.814734    1.828695    2.273808    4.935504    -0.000000    0.000000    4.102181    -0.000000    0.000000    8.204362    5.217882    -0.069496    -0.760960    0.000000    0.000000    0.000000    0.000000    0.000000    0.000000    -20.167711    -10.676435    8.876093    -36.299995    0.000000    0.000000    -25.551828    0.000000    0.000000    -45.131325    -24.347273    13.264009    -72.600006    0.000000    0.000000    -51.103657    0.000000    0.000000    -73.770744    -38.857094    10.349214    -110.000000    0.000000    0.000000    -77.429779    0.000000    0.000000    -18.222727    -17.637314    0.323923    49.407631    46.747761    43.125603    -15.531542    -52.097660    75.481323    16.297626    -73.351143    -33.491829    2.689386    -3.361489    7.232180    0.000000    0.000000    0.000000    0.000000    0.000000    0.000000    0.111906    0.000000    -0.000000    0.223812    0.000000    -0.000000    0.111906    0.000000    -0.000000    19.511942    -3.019109    -3.664080    36.449963    0.000000    -0.000000    19.695866    0.000000    -0.000000    38.791328    -7.080660    -6.130167    72.676102    0.000000    -0.000000    39.279823    0.000000    -0.000000    58.715660    -11.870127    -7.124277    110.000000    0.000000    -0.000000    59.457230    0.000000    -0.000000    9.942881    10.285804    16.198298    -2.683866    34.755959    18.445122    -11.912232    -25.998768    -4.519945    0.054265    0.574848    -0.064810    -0.589707    -10.026653    2.935032    7.947271    46.742729    -10.273726    2.666614    -5.890167    39.845341    -1.046931    -5.960425    1.079808    
-6.655315    78.276474    113.689980    -13.237469    -9.452094    -36.211987    -5.016454    -1.763561    -14.275644    -5.989467    19.561970    -3.704163    4.217451    1.347661    16.761778    6.983213    -2.826411    17.236557    2.485831    3.502578    -27.894842    -80.941399    36.088001    -0.010423    70.691185    -30.513828    -74.038818    52.345196    -23.029106    8.260412    1.919897    2.337261    5.119661    -0.000000    0.000000    4.264675    -0.000000    0.000000    8.529349    5.639884    -0.084972    -0.860381    0.000000    0.000000    0.000000    0.000000    0.000000    0.000000    -19.743071    -10.599826    8.885758    -36.299995    0.000000    0.000000    -25.403921    0.000000    0.000000    -44.671928    -24.232422    13.420347    -72.600006    0.000000    0.000000    -50.807842    0.000000    0.000000    -73.205170    -38.775204    10.703723    -110.000000    0.000000    0.000000    -76.981575    0.000000    0.000000    -18.446413    -17.982630    0.596368    48.936077    46.090435    42.663811    -12.916723    -51.339149    76.774506    19.619453    -74.458046    -30.794624    2.468752    -3.249898    6.883457    0.000000    0.000000    0.000000    0.000000    0.000000    0.000000    -0.540679    0.000000    0.000000    0.000000    0.000000    0.000000    0.000000    0.000000    0.000000    18.822037    -2.980175    -3.711795    36.299995    0.000000    -0.000000    19.368523    0.000000    -0.000000    38.060959    -7.019101    -6.238592    72.600006    0.000000    -0.000000    38.737041    0.000000    -0.000000    57.936253    -11.806758    -7.303905    110.000000    0.000000    -0.000000    58.692482    0.000000    -0.000000    10.574799    10.315499    15.931080    -2.831840    36.663036    17.310715    -11.511575    -27.198067    -3.780575    0.043856    0.615605    -0.034392    -0.680536    -10.122087    2.442595    8.520608    48.559566    -10.828374    2.776076    -5.608335    39.955437    -1.064114    -6.045349    1.099487    
